<svg width="200" height="200" xmlns="http://www.w3.org/2000/svg">
  <!-- QR Code simulation for umb-001 -->
  <rect width="200" height="200" fill="white"/>
  
  <!-- Border -->
  <rect x="10" y="10" width="180" height="180" fill="none" stroke="black" stroke-width="2"/>
  
  <!-- Corner squares -->
  <rect x="20" y="20" width="50" height="50" fill="black"/>
  <rect x="30" y="30" width="30" height="30" fill="white"/>
  <rect x="40" y="40" width="10" height="10" fill="black"/>
  
  <rect x="130" y="20" width="50" height="50" fill="black"/>
  <rect x="140" y="30" width="30" height="30" fill="white"/>
  <rect x="150" y="40" width="10" height="10" fill="black"/>
  
  <rect x="20" y="130" width="50" height="50" fill="black"/>
  <rect x="30" y="140" width="30" height="30" fill="white"/>
  <rect x="40" y="150" width="10" height="10" fill="black"/>
  
  <!-- Data pattern simulation -->
  <rect x="80" y="30" width="10" height="10" fill="black"/>
  <rect x="100" y="30" width="10" height="10" fill="black"/>
  <rect x="90" y="40" width="10" height="10" fill="black"/>
  <rect x="110" y="40" width="10" height="10" fill="black"/>
  
  <rect x="30" y="80" width="10" height="10" fill="black"/>
  <rect x="50" y="80" width="10" height="10" fill="black"/>
  <rect x="70" y="80" width="10" height="10" fill="black"/>
  <rect x="90" y="80" width="10" height="10" fill="black"/>
  <rect x="110" y="80" width="10" height="10" fill="black"/>
  <rect x="130" y="80" width="10" height="10" fill="black"/>
  <rect x="150" y="80" width="10" height="10" fill="black"/>
  <rect x="170" y="80" width="10" height="10" fill="black"/>
  
  <rect x="40" y="90" width="10" height="10" fill="black"/>
  <rect x="80" y="90" width="10" height="10" fill="black"/>
  <rect x="120" y="90" width="10" height="10" fill="black"/>
  <rect x="160" y="90" width="10" height="10" fill="black"/>
  
  <!-- More data pattern -->
  <rect x="90" y="100" width="10" height="10" fill="black"/>
  <rect x="30" y="110" width="10" height="10" fill="black"/>
  <rect x="70" y="110" width="10" height="10" fill="black"/>
  <rect x="110" y="110" width="10" height="10" fill="black"/>
  <rect x="150" y="110" width="10" height="10" fill="black"/>
  
  <rect x="80" y="120" width="10" height="10" fill="black"/>
  <rect x="120" y="120" width="10" height="10" fill="black"/>
  <rect x="160" y="120" width="10" height="10" fill="black"/>
  
  <rect x="90" y="140" width="10" height="10" fill="black"/>
  <rect x="110" y="140" width="10" height="10" fill="black"/>
  <rect x="130" y="140" width="10" height="10" fill="black"/>
  <rect x="150" y="140" width="10" height="10" fill="black"/>
  <rect x="170" y="140" width="10" height="10" fill="black"/>
  
  <rect x="80" y="150" width="10" height="10" fill="black"/>
  <rect x="120" y="150" width="10" height="10" fill="black"/>
  <rect x="160" y="150" width="10" height="10" fill="black"/>
  
  <rect x="90" y="160" width="10" height="10" fill="black"/>
  <rect x="130" y="160" width="10" height="10" fill="black"/>
  <rect x="170" y="160" width="10" height="10" fill="black"/>
  
  <rect x="100" y="170" width="10" height="10" fill="black"/>
  <rect x="140" y="170" width="10" height="10" fill="black"/>
  
  <!-- Label -->
  <text x="100" y="195" text-anchor="middle" font-family="Arial, sans-serif" font-size="8" fill="black">umb-001</text>
</svg>